<?xml version="1.0" encoding="UTF-8" standalone="no"?>
<!DOCTYPE svg PUBLIC "-//W3C//DTD SVG 1.1//EN" "http://www.w3.org/Graphics/SVG/1.1/DTD/svg11.dtd">
<svg width="100%" height="100%" viewBox="0 0 1280 640" version="1.1" xmlns="http://www.w3.org/2000/svg" xmlns:xlink="http://www.w3.org/1999/xlink" xml:space="preserve" xmlns:serif="http://www.serif.com/" style="fill-rule:evenodd;clip-rule:evenodd;stroke-linejoin:round;stroke-miterlimit:2;">
    <rect id="Artboard1" x="0" y="0" width="1280" height="640" style="fill:none;"/>
    <g id="Artboard11" serif:id="Artboard1">
        <g transform="matrix(0.542568,0,0,0.542568,140.484,59.0057)">
            <text x="529.577px" y="248.701px" style="font-family:'Inter-Regular_Bold', 'Inter';font-size:96px;fill:white;">Pr<tspan x="624.623px " y="248.701px ">o</tspan>ject<tspan x="848.123px " y="248.701px ">s</tspan></text>
            <g transform="matrix(96,0,0,96,1476.08,248.701)">
            </g>
            <text x="925.304px" y="248.701px" style="font-family:'Inter-Regular_SemiBold', 'Inter';font-size:96px;fill:rgb(142,142,142);">f<tspan x="957.759px " y="248.701px ">o</tspan>r Obsidian</text>
        </g>
        <g transform="matrix(1,0,0,1,86.8063,26.5532)">
            <text x="342.321px" y="358.032px" style="font-family:'Inter-Regular_Bold', 'Inter';font-size:96px;fill:url(#_Linear1);">Plain t<tspan x="620.503px 675.048px " y="358.032px 358.032px ">ex</tspan>t</text>
            <g transform="matrix(96,0,0,96,916.685,454.032)">
            </g>
            <text x="187.412px" y="454.032px" style="font-family:'Inter-Regular_Bold', 'Inter';font-size:96px;fill:white;">pr<tspan x="280.003px " y="454.032px ">o</tspan>ject planning</text>
        </g>
        <g transform="matrix(0.476503,0,0,0.476503,-303.216,-7.07888)">
            <path d="M1493.23,444.227L1382.97,444.227L1382.97,333.964L1493.23,333.964L1493.23,444.227ZM1478.23,348.964L1397.97,348.964L1397.97,429.227L1478.23,429.227L1478.23,348.964Z" style="fill:white;"/>
        </g>
        <g transform="matrix(0.476503,0,0,0.476503,-313.435,-17.3498)">
            <path d="M1499.73,450.727L1376.47,450.727L1376.47,327.464L1499.73,327.464L1499.73,450.727ZM1471.73,355.464C1471.73,355.464 1404.47,355.464 1404.47,355.464C1404.47,355.464 1404.47,422.727 1404.47,422.727C1404.47,422.727 1471.73,422.727 1471.73,422.727L1471.73,355.464Z"/>
        </g>
        <g transform="matrix(0.476503,0,0,0.476503,-313.435,-17.3498)">
            <path d="M1493.23,444.227L1382.97,444.227L1382.97,333.964L1493.23,333.964L1493.23,444.227ZM1478.23,348.964L1397.97,348.964L1397.97,429.227L1478.23,429.227L1478.23,348.964Z" style="fill:white;"/>
        </g>
    </g>
    <defs>
        <linearGradient id="_Linear1" x1="0" y1="0" x2="1" y2="0" gradientUnits="userSpaceOnUse" gradientTransform="matrix(718.146,0,0,189.927,193.739,379.795)"><stop offset="0" style="stop-color:rgb(138,35,135);stop-opacity:1"/><stop offset="0.5" style="stop-color:rgb(233,64,87);stop-opacity:1"/><stop offset="1" style="stop-color:rgb(242,113,33);stop-opacity:1"/></linearGradient>
    </defs>
</svg>
