<?xml version="1.0" encoding="UTF-8" standalone="no"?>
<!DOCTYPE svg PUBLIC "-//W3C//DTD SVG 1.1//EN" "http://www.w3.org/Graphics/SVG/1.1/DTD/svg11.dtd">
<svg width="100%" height="100%" viewBox="0 0 1280 640" version="1.1" xmlns="http://www.w3.org/2000/svg" xmlns:xlink="http://www.w3.org/1999/xlink" xml:space="preserve" xmlns:serif="http://www.serif.com/" style="fill-rule:evenodd;clip-rule:evenodd;stroke-linejoin:round;stroke-miterlimit:2;">
    <rect id="Artboard1" x="0" y="0" width="1280" height="640" style="fill:none;"/>
    <g id="Artboard11" serif:id="Artboard1">
        <g transform="matrix(0.542568,0,0,0.542568,140.484,59.0057)">
            <path d="M535.659,248.701L535.659,178.883L563.177,178.883C568.477,178.883 572.991,179.889 576.718,181.903C580.445,183.917 583.293,186.703 585.261,190.262C587.229,193.821 588.213,197.91 588.213,202.528C588.213,207.173 587.215,211.267 585.217,214.808C583.219,218.348 580.328,221.11 576.544,223.092C572.76,225.074 568.186,226.064 562.823,226.064L545.259,226.064L545.259,214.228L560.422,214.228C563.259,214.228 565.606,213.734 567.462,212.745C569.319,211.756 570.71,210.383 571.635,208.624C572.56,206.864 573.023,204.833 573.023,202.528C573.023,200.21 572.56,198.184 571.635,196.45C570.71,194.716 569.315,193.368 567.449,192.406C565.583,191.445 563.222,190.964 560.368,190.964L550.414,190.964L550.414,248.701L535.659,248.701Z" style="fill:white;fill-rule:nonzero;"/>
            <path d="M596.341,248.701L596.341,196.337L610.413,196.337L610.413,205.474L610.958,205.474C611.913,202.228 613.514,199.771 615.762,198.103C618.01,196.435 620.6,195.601 623.532,195.601C624.259,195.601 625.042,195.643 625.88,195.727C626.719,195.811 627.454,195.93 628.086,196.085L628.086,208.991C627.418,208.773 626.482,208.587 625.277,208.433C624.073,208.278 622.963,208.201 621.95,208.201C619.827,208.201 617.928,208.661 616.253,209.582C614.578,210.502 613.259,211.779 612.295,213.413C611.332,215.047 610.85,216.937 610.85,219.083L610.85,248.701L596.341,248.701Z" style="fill:white;fill-rule:nonzero;"/>
            <path d="M654.077,249.71C648.777,249.71 644.202,248.581 640.352,246.325C636.502,244.068 633.532,240.913 631.441,236.861C629.35,232.809 628.304,228.092 628.304,222.71C628.304,217.31 629.35,212.579 631.441,208.518C633.532,204.456 636.502,201.297 640.352,199.041C644.202,196.784 648.777,195.655 654.077,195.655C659.377,195.655 663.952,196.784 667.802,199.041C671.652,201.297 674.623,204.456 676.713,208.518C678.804,212.579 679.85,217.31 679.85,222.71C679.85,228.092 678.804,232.809 676.713,236.861C674.623,240.913 671.652,244.068 667.802,246.325C663.952,248.581 659.377,249.71 654.077,249.71ZM654.159,238.474C656.55,238.474 658.556,237.785 660.179,236.408C661.802,235.03 663.027,233.148 663.854,230.762C664.682,228.376 665.095,225.664 665.095,222.628C665.095,219.578 664.682,216.859 663.854,214.47C663.027,212.081 661.802,210.194 660.179,208.808C658.556,207.421 656.55,206.728 654.159,206.728C651.713,206.728 649.666,207.421 648.016,208.808C646.366,210.194 645.127,212.081 644.3,214.47C643.472,216.859 643.059,219.578 643.059,222.628C643.059,225.664 643.472,228.376 644.3,230.762C645.127,233.148 646.366,235.03 648.016,236.408C649.666,237.785 651.713,238.474 654.159,238.474Z" style="fill:white;fill-rule:nonzero;"/>
            <path d="M687.705,196.337L702.213,196.337L702.213,251.292C702.213,255.337 701.417,258.61 699.824,261.11C698.23,263.61 695.954,265.439 692.995,266.599C690.036,267.758 686.5,268.337 682.386,268.337C681.868,268.337 681.38,268.33 680.924,268.317C680.467,268.303 679.973,268.283 679.441,268.255L679.441,256.91C679.822,256.937 680.158,256.958 680.446,256.971C680.735,256.985 681.036,256.992 681.35,256.992C683.681,256.992 685.324,256.495 686.276,255.502C687.228,254.509 687.705,253.023 687.705,251.046L687.705,196.337ZM694.931,189.573C692.777,189.573 690.929,188.855 689.388,187.419C687.847,185.983 687.077,184.256 687.077,182.237C687.077,180.219 687.847,178.492 689.388,177.055C690.929,175.619 692.777,174.901 694.931,174.901C697.1,174.901 698.951,175.619 700.485,177.055C702.019,178.492 702.786,180.219 702.786,182.237C702.786,184.256 702.019,185.983 700.485,187.419C698.951,188.855 697.1,189.573 694.931,189.573Z" style="fill:white;fill-rule:nonzero;"/>
            <path d="M734.313,249.71C728.941,249.71 724.315,248.618 720.435,246.434C716.555,244.25 713.571,241.141 711.483,237.107C709.394,233.073 708.35,228.292 708.35,222.765C708.35,217.374 709.398,212.644 711.493,208.576C713.589,204.508 716.536,201.337 720.336,199.064C724.136,196.792 728.604,195.655 733.741,195.655C737.204,195.655 740.429,196.205 743.416,197.305C746.402,198.405 749.013,200.061 751.25,202.272C753.486,204.484 755.232,207.253 756.486,210.581C757.741,213.908 758.368,217.796 758.368,222.246L758.368,226.228L714.159,226.228L714.159,217.228L744.705,217.228C744.691,215.146 744.228,213.298 743.317,211.682C742.406,210.066 741.149,208.795 739.546,207.87C737.944,206.945 736.091,206.482 733.986,206.482C731.79,206.482 729.845,206.993 728.149,208.013C726.454,209.033 725.128,210.389 724.171,212.08C723.214,213.771 722.722,215.651 722.695,217.719L722.695,226.282C722.695,228.874 723.181,231.112 724.154,232.999C725.127,234.885 726.499,236.337 728.272,237.355C730.045,238.374 732.14,238.883 734.559,238.883C736.182,238.883 737.66,238.653 738.994,238.194C740.328,237.735 741.477,237.055 742.441,236.152C743.405,235.25 744.132,234.142 744.623,232.828L758.04,233.701C757.359,236.937 755.97,239.754 753.875,242.152C751.779,244.55 749.076,246.409 745.765,247.729C742.453,249.05 738.636,249.71 734.313,249.71Z" style="fill:white;fill-rule:nonzero;"/>
            <path d="M790.032,249.71C784.659,249.71 780.05,248.568 776.204,246.284C772.359,243.999 769.407,240.827 767.348,236.766C765.288,232.704 764.259,228.019 764.259,222.71C764.259,217.365 765.3,212.659 767.382,208.593C769.464,204.527 772.425,201.354 776.266,199.075C780.107,196.795 784.677,195.655 789.977,195.655C794.532,195.655 798.528,196.484 801.967,198.141C805.405,199.797 808.122,202.129 810.118,205.136C812.113,208.143 813.209,211.664 813.404,215.701L799.713,215.701C799.318,213.096 798.301,210.99 796.663,209.384C795.024,207.777 792.868,206.974 790.195,206.974C787.959,206.974 786.002,207.582 784.325,208.797C782.647,210.013 781.343,211.779 780.411,214.095C779.479,216.411 779.013,219.219 779.013,222.519C779.013,225.855 779.475,228.693 780.397,231.032C781.32,233.37 782.62,235.155 784.297,236.384C785.975,237.614 787.941,238.229 790.195,238.229C791.863,238.229 793.359,237.889 794.682,237.209C796.004,236.529 797.103,235.538 797.978,234.236C798.853,232.934 799.432,231.355 799.713,229.501L813.404,229.501C813.181,233.505 812.1,237.027 810.159,240.066C808.218,243.104 805.542,245.471 802.13,247.167C798.719,248.862 794.686,249.71 790.032,249.71Z" style="fill:white;fill-rule:nonzero;"/>
            <path d="M847.823,196.337L847.823,207.246L816.268,207.246L816.268,196.337L847.823,196.337ZM823.441,183.792L837.95,183.792L837.95,232.596C837.95,233.942 838.159,234.986 838.577,235.729C838.995,236.473 839.572,236.991 840.309,237.284C841.045,237.577 841.895,237.724 842.859,237.724C843.554,237.724 844.244,237.662 844.928,237.54C845.612,237.417 846.131,237.315 846.486,237.233L848.777,248.06C848.054,248.292 847.03,248.56 845.705,248.865C844.38,249.169 842.777,249.355 840.895,249.424C837.395,249.56 834.332,249.095 831.704,248.029C829.077,246.964 827.036,245.301 825.581,243.042C824.127,240.783 823.413,237.946 823.441,234.533L823.441,183.792Z" style="fill:white;fill-rule:nonzero;"/>
            <path d="M897.486,211.255L884.205,212.073C883.968,210.951 883.477,209.928 882.732,209.005C881.986,208.083 881.003,207.345 879.783,206.793C878.562,206.24 877.109,205.964 875.422,205.964C873.172,205.964 871.275,206.435 869.729,207.376C868.184,208.317 867.418,209.564 867.431,211.119C867.418,212.383 867.91,213.444 868.908,214.303C869.905,215.162 871.622,215.855 874.059,216.383L883.55,218.292C888.64,219.333 892.432,221.011 894.926,223.327C897.419,225.643 898.672,228.692 898.686,232.474C898.672,235.91 897.664,238.923 895.662,241.511C893.66,244.1 890.91,246.113 887.412,247.552C883.914,248.99 879.9,249.71 875.368,249.71C868.432,249.71 862.91,248.264 858.803,245.374C854.697,242.483 852.3,238.537 851.614,233.537L865.877,232.773C866.318,234.896 867.364,236.509 869.017,237.611C870.669,238.713 872.795,239.265 875.395,239.265C877.931,239.265 879.98,238.767 881.542,237.772C883.103,236.776 883.891,235.501 883.905,233.946C883.891,232.619 883.34,231.53 882.251,230.68C881.162,229.83 879.477,229.173 877.195,228.71L868.141,226.91C863.018,225.896 859.211,224.126 856.72,221.599C854.23,219.071 852.991,215.851 853.004,211.937C852.991,208.573 853.901,205.677 855.735,203.247C857.569,200.818 860.153,198.945 863.487,197.629C866.822,196.313 870.718,195.655 875.177,195.655C881.79,195.655 887.003,197.051 890.814,199.842C894.626,202.632 896.85,206.437 897.486,211.255Z" style="fill:white;fill-rule:nonzero;"/>
            <path d="M958.168,196.337L958.168,205.883L927.213,205.883L927.213,196.337L958.168,196.337ZM934.959,248.701L934.959,191.401C934.959,187.874 935.691,184.942 937.154,182.605C938.618,180.269 940.588,178.519 943.066,177.355C945.543,176.192 948.295,175.61 951.323,175.61C953.464,175.61 955.361,175.778 957.016,176.114C958.67,176.451 959.9,176.755 960.705,177.028L958.223,186.601C957.704,186.437 957.049,186.269 956.255,186.096C955.462,185.924 954.582,185.837 953.614,185.837C951.309,185.837 949.683,186.389 948.735,187.494C947.788,188.599 947.314,190.174 947.314,192.219L947.314,248.701L934.959,248.701Z" style="fill:rgb(142,142,142);fill-rule:nonzero;"/>
            <path d="M986.941,249.737C981.832,249.737 977.401,248.61 973.649,246.355C969.896,244.101 966.992,240.949 964.935,236.898C962.878,232.848 961.85,228.128 961.85,222.737C961.85,217.319 962.878,212.578 964.935,208.515C966.992,204.451 969.896,201.292 973.649,199.037C977.401,196.783 981.832,195.655 986.941,195.655C992.05,195.655 996.48,196.783 1000.23,199.037C1003.99,201.292 1006.89,204.451 1008.95,208.515C1011,212.578 1012.03,217.319 1012.03,222.737C1012.03,228.128 1011,232.848 1008.95,236.898C1006.89,240.949 1003.99,244.101 1000.23,246.355C996.48,248.61 992.05,249.737 986.941,249.737ZM986.995,239.837C989.786,239.837 992.109,239.071 993.963,237.54C995.818,236.008 997.206,233.946 998.129,231.355C999.052,228.765 999.513,225.874 999.513,222.683C999.513,219.483 999.052,216.583 998.129,213.983C997.206,211.383 995.818,209.31 993.963,207.765C992.109,206.219 989.786,205.446 986.995,205.446C984.168,205.446 981.818,206.219 979.945,207.765C978.073,209.31 976.675,211.383 975.752,213.983C974.829,216.583 974.368,219.483 974.368,222.683C974.368,225.874 974.829,228.765 975.752,231.355C976.675,233.946 978.073,236.008 979.945,237.54C981.818,239.071 984.168,239.837 986.995,239.837Z" style="fill:rgb(142,142,142);fill-rule:nonzero;"/>
            <path d="M1021.36,248.701L1021.36,196.337L1033.33,196.337L1033.33,205.064L1033.88,205.064C1034.83,202.037 1036.47,199.698 1038.81,198.048C1041.14,196.398 1043.8,195.573 1046.8,195.573C1047.49,195.573 1048.25,195.605 1049.11,195.669C1049.96,195.733 1050.68,195.824 1051.25,195.942L1051.25,207.274C1050.71,207.106 1049.88,206.945 1048.76,206.793C1047.63,206.641 1046.55,206.564 1045.52,206.564C1043.26,206.564 1041.24,207.047 1039.46,208.013C1037.68,208.979 1036.28,210.316 1035.25,212.022C1034.23,213.729 1033.71,215.692 1033.71,217.91L1033.71,248.701L1021.36,248.701Z" style="fill:rgb(142,142,142);fill-rule:nonzero;"/>
            <path d="M1147.03,213.792C1147.03,221.319 1145.63,227.758 1142.83,233.108C1140.02,238.458 1136.2,242.553 1131.36,245.394C1126.53,248.235 1121.06,249.655 1114.96,249.655C1108.84,249.655 1103.37,248.23 1098.53,245.38C1093.7,242.53 1089.89,238.431 1087.09,233.081C1084.29,227.731 1082.89,221.301 1082.89,213.792C1082.89,206.264 1084.29,199.826 1087.09,194.476C1089.89,189.126 1093.7,185.03 1098.53,182.189C1103.37,179.349 1108.84,177.928 1114.96,177.928C1121.06,177.928 1126.53,179.349 1131.36,182.189C1136.2,185.03 1140.02,189.126 1142.83,194.476C1145.63,199.826 1147.03,206.264 1147.03,213.792ZM1134.32,213.792C1134.32,208.492 1133.5,204.019 1131.85,200.374C1130.2,196.728 1127.92,193.967 1125.01,192.09C1122.1,190.213 1118.75,189.274 1114.96,189.274C1111.17,189.274 1107.82,190.213 1104.91,192.09C1101.99,193.967 1099.71,196.728 1098.07,200.374C1096.42,204.019 1095.6,208.492 1095.6,213.792C1095.6,219.092 1096.42,223.565 1098.07,227.21C1099.71,230.855 1101.99,233.617 1104.91,235.494C1107.82,237.371 1111.17,238.31 1114.96,238.31C1118.75,238.31 1122.1,237.371 1125.01,235.494C1127.92,233.617 1130.2,230.855 1131.85,227.21C1133.5,223.565 1134.32,219.092 1134.32,213.792Z" style="fill:rgb(142,142,142);fill-rule:nonzero;"/>
            <path d="M1157.72,248.701L1157.72,178.883L1170.08,178.883L1170.08,204.982L1170.6,204.982C1171.22,203.728 1172.12,202.377 1173.28,200.929C1174.44,199.482 1176.01,198.241 1177.98,197.207C1179.96,196.172 1182.49,195.655 1185.57,195.655C1189.6,195.655 1193.24,196.685 1196.51,198.744C1199.78,200.803 1202.37,203.837 1204.29,207.846C1206.21,211.855 1207.17,216.774 1207.17,222.601C1207.17,228.346 1206.23,233.232 1204.35,237.257C1202.46,241.282 1199.89,244.35 1196.64,246.461C1193.39,248.573 1189.7,249.628 1185.6,249.628C1182.6,249.628 1180.1,249.129 1178.12,248.132C1176.14,247.134 1174.55,245.923 1173.36,244.498C1172.16,243.072 1171.24,241.719 1170.6,240.437L1169.86,240.437L1169.86,248.701L1157.72,248.701ZM1169.83,222.519C1169.83,225.91 1170.31,228.879 1171.28,231.427C1172.24,233.974 1173.64,235.958 1175.47,237.379C1177.3,238.799 1179.53,239.51 1182.16,239.51C1184.87,239.51 1187.14,238.777 1188.99,237.311C1190.83,235.845 1192.23,233.831 1193.17,231.27C1194.12,228.709 1194.6,225.792 1194.6,222.519C1194.6,219.274 1194.13,216.391 1193.19,213.87C1192.26,211.35 1190.87,209.37 1189.03,207.932C1187.18,206.493 1184.89,205.774 1182.16,205.774C1179.51,205.774 1177.26,206.466 1175.43,207.85C1173.6,209.234 1172.21,211.18 1171.26,213.686C1170.31,216.193 1169.83,219.137 1169.83,222.519Z" style="fill:rgb(142,142,142);fill-rule:nonzero;"/>
            <path d="M1258.17,210.192L1246.9,211.419C1246.6,210.269 1246.05,209.195 1245.26,208.197C1244.47,207.2 1243.42,206.392 1242.1,205.774C1240.79,205.156 1239.18,204.847 1237.28,204.847C1234.71,204.847 1232.56,205.404 1230.82,206.52C1229.08,207.636 1228.21,209.087 1228.22,210.874C1228.21,212.383 1228.78,213.617 1229.93,214.576C1231.08,215.535 1232.99,216.319 1235.64,216.928L1244.56,218.837C1249.51,219.91 1253.2,221.607 1255.63,223.927C1258.06,226.247 1259.28,229.278 1259.29,233.019C1259.28,236.31 1258.32,239.212 1256.41,241.726C1254.51,244.239 1251.88,246.203 1248.52,247.617C1245.17,249.031 1241.3,249.737 1236.92,249.737C1230.52,249.737 1225.36,248.387 1221.46,245.687C1217.55,242.987 1215.22,239.228 1214.45,234.41L1226.5,233.265C1227.04,235.619 1228.2,237.398 1229.98,238.603C1231.76,239.808 1234.06,240.41 1236.89,240.41C1239.84,240.41 1242.2,239.811 1243.98,238.613C1245.76,237.415 1246.65,235.923 1246.66,234.137C1246.65,232.646 1246.07,231.411 1244.92,230.432C1243.77,229.452 1242,228.705 1239.6,228.192L1230.65,226.31C1225.64,225.255 1221.93,223.486 1219.52,221.002C1217.11,218.518 1215.91,215.369 1215.92,211.556C1215.91,208.328 1216.8,205.526 1218.58,203.149C1220.36,200.771 1222.84,198.928 1226.03,197.619C1229.22,196.31 1232.91,195.655 1237.11,195.655C1243.25,195.655 1248.08,196.965 1251.61,199.583C1255.14,202.201 1257.33,205.737 1258.17,210.192Z" style="fill:rgb(142,142,142);fill-rule:nonzero;"/>
            <path d="M1266.95,248.701L1266.95,196.337L1279.3,196.337L1279.3,248.701L1266.95,248.701ZM1273.17,188.919C1271.21,188.919 1269.53,188.262 1268.13,186.948C1266.72,185.634 1266.02,184.054 1266.02,182.209C1266.02,180.364 1266.73,178.785 1268.13,177.471C1269.53,176.158 1271.21,175.501 1273.17,175.501C1275.14,175.501 1276.82,176.158 1278.22,177.472C1279.62,178.786 1280.31,180.365 1280.31,182.21C1280.31,184.055 1279.62,185.635 1278.22,186.949C1276.82,188.262 1275.14,188.919 1273.17,188.919Z" style="fill:rgb(142,142,142);fill-rule:nonzero;"/>
            <path d="M1309.17,249.628C1305.06,249.628 1301.38,248.573 1298.12,246.461C1294.87,244.35 1292.3,241.282 1290.42,237.257C1288.54,233.232 1287.6,228.346 1287.6,222.601C1287.6,216.774 1288.55,211.855 1290.47,207.846C1292.39,203.837 1294.98,200.803 1298.25,198.744C1301.52,196.685 1305.17,195.655 1309.19,195.655C1312.28,195.655 1314.81,196.172 1316.78,197.207C1318.76,198.241 1320.32,199.482 1321.49,200.929C1322.65,202.377 1323.54,203.728 1324.17,204.982L1324.69,204.982L1324.69,178.883L1337.04,178.883L1337.04,248.701L1324.9,248.701L1324.9,240.437L1324.17,240.437C1323.52,241.719 1322.6,243.072 1321.41,244.498C1320.21,245.923 1318.62,247.134 1316.64,248.132C1314.66,249.129 1312.17,249.628 1309.17,249.628ZM1312.6,239.51C1315.23,239.51 1317.46,238.799 1319.29,237.379C1321.12,235.958 1322.52,233.974 1323.49,231.427C1324.45,228.879 1324.93,225.91 1324.93,222.519C1324.93,219.137 1324.46,216.193 1323.51,213.686C1322.56,211.18 1321.17,209.234 1319.33,207.85C1317.5,206.466 1315.26,205.774 1312.6,205.774C1309.87,205.774 1307.58,206.493 1305.74,207.932C1303.89,209.37 1302.5,211.35 1301.57,213.87C1300.63,216.391 1300.17,219.274 1300.17,222.519C1300.17,225.792 1300.64,228.709 1301.59,231.27C1302.54,233.831 1303.93,235.845 1305.78,237.311C1307.62,238.777 1309.89,239.51 1312.6,239.51Z" style="fill:rgb(142,142,142);fill-rule:nonzero;"/>
            <path d="M1349.31,248.701L1349.31,196.337L1361.67,196.337L1361.67,248.701L1349.31,248.701ZM1355.54,188.919C1353.58,188.919 1351.89,188.262 1350.49,186.948C1349.09,185.634 1348.39,184.054 1348.39,182.209C1348.39,180.364 1349.09,178.785 1350.49,177.471C1351.89,176.158 1353.58,175.501 1355.53,175.501C1357.5,175.501 1359.18,176.158 1360.58,177.472C1361.98,178.786 1362.68,180.365 1362.68,182.21C1362.68,184.055 1361.98,185.635 1360.58,186.949C1359.18,188.262 1357.5,188.919 1355.54,188.919Z" style="fill:rgb(142,142,142);fill-rule:nonzero;"/>
            <path d="M1387.17,249.765C1383.84,249.765 1380.85,249.166 1378.21,247.968C1375.56,246.77 1373.47,245.002 1371.94,242.663C1370.4,240.325 1369.63,237.437 1369.63,234.001C1369.63,231.055 1370.18,228.613 1371.28,226.675C1372.38,224.736 1373.87,223.187 1375.76,222.028C1377.65,220.869 1379.78,219.993 1382.15,219.4C1384.52,218.807 1386.97,218.374 1389.51,218.101C1392.6,217.764 1395.09,217.465 1397,217.204C1398.9,216.943 1400.29,216.535 1401.16,215.98C1402.03,215.426 1402.47,214.56 1402.47,213.383L1402.47,213.164C1402.47,210.601 1401.71,208.614 1400.19,207.205C1398.68,205.796 1396.48,205.092 1393.6,205.092C1390.58,205.092 1388.19,205.753 1386.43,207.076C1384.67,208.399 1383.48,209.955 1382.86,211.746L1371.35,210.11C1372.26,206.928 1373.76,204.263 1375.85,202.116C1377.95,199.968 1380.5,198.354 1383.52,197.275C1386.54,196.195 1389.89,195.655 1393.55,195.655C1396.06,195.655 1398.57,195.95 1401.07,196.538C1403.58,197.127 1405.87,198.101 1407.94,199.46C1410.01,200.819 1411.67,202.658 1412.93,204.976C1414.19,207.294 1414.82,210.187 1414.82,213.655L1414.82,248.701L1402.96,248.701L1402.96,241.501L1402.55,241.501C1401.8,242.965 1400.75,244.326 1399.39,245.585C1398.03,246.844 1396.34,247.855 1394.31,248.619C1392.29,249.383 1389.9,249.765 1387.17,249.765ZM1390.36,240.683C1392.84,240.683 1394.99,240.189 1396.81,239.203C1398.63,238.217 1400.04,236.908 1401.03,235.276C1402.03,233.644 1402.52,231.855 1402.52,229.91L1402.52,223.746C1402.12,224.074 1401.46,224.373 1400.55,224.643C1399.64,224.913 1398.61,225.152 1397.47,225.359C1396.32,225.566 1395.19,225.748 1394.08,225.904C1392.96,226.061 1392,226.196 1391.18,226.31C1389.34,226.565 1387.7,226.975 1386.24,227.541C1384.79,228.107 1383.65,228.895 1382.81,229.907C1381.97,230.918 1381.55,232.219 1381.55,233.81C1381.55,236.069 1382.38,237.779 1384.04,238.94C1385.69,240.102 1387.8,240.683 1390.36,240.683Z" style="fill:rgb(142,142,142);fill-rule:nonzero;"/>
            <path d="M1438.58,218.019L1438.58,248.701L1426.22,248.701L1426.22,196.337L1438.03,196.337L1438.03,205.228L1438.66,205.228C1439.85,202.305 1441.77,199.979 1444.42,198.25C1447.07,196.52 1450.35,195.655 1454.26,195.655C1457.87,195.655 1461.02,196.427 1463.71,197.97C1466.4,199.513 1468.49,201.752 1469.98,204.686C1471.47,207.62 1472.21,211.183 1472.2,215.374L1472.2,248.701L1459.85,248.701L1459.85,217.283C1459.86,213.778 1458.96,211.038 1457.14,209.064C1455.33,207.089 1452.83,206.101 1449.65,206.101C1447.49,206.101 1445.58,206.569 1443.91,207.506C1442.25,208.442 1440.94,209.799 1440,211.576C1439.06,213.353 1438.59,215.501 1438.58,218.019Z" style="fill:rgb(142,142,142);fill-rule:nonzero;"/>
        </g>
        <g transform="matrix(1,0,0,1,86.8063,26.5532)">
            <path d="M348.403,358.032L348.403,288.214L375.921,288.214C381.221,288.214 385.734,289.22 389.462,291.234C393.189,293.248 396.037,296.034 398.005,299.593C399.973,303.152 400.957,307.241 400.957,311.859C400.957,316.504 399.958,320.598 397.961,324.138C395.963,327.679 393.072,330.441 389.288,332.423C385.504,334.404 380.93,335.395 375.566,335.395L358.003,335.395L358.003,323.559L373.166,323.559C376.003,323.559 378.35,323.065 380.206,322.076C382.063,321.087 383.454,319.713 384.379,317.954C385.304,316.195 385.767,314.163 385.767,311.859C385.767,309.541 385.304,307.514 384.379,305.78C383.454,304.046 382.058,302.699 380.192,301.737C378.327,300.776 375.966,300.295 373.112,300.295L363.157,300.295L363.157,358.032L348.403,358.032Z" style="fill:url(#_Linear1);fill-rule:nonzero;"/>
            <rect x="409.085" y="288.214" width="14.509" height="69.818" style="fill:url(#_Linear2);fill-rule:nonzero;"/>
            <path d="M446.775,359.013C443.444,359.013 440.47,358.431 437.854,357.265C435.238,356.099 433.176,354.361 431.667,352.052C430.157,349.743 429.403,346.864 429.403,343.414C429.403,340.495 429.933,338.051 430.992,336.081C432.051,334.11 433.501,332.523 435.342,331.318C437.183,330.114 439.281,329.2 441.638,328.577C443.995,327.954 446.471,327.518 449.066,327.268C452.098,326.968 454.547,326.676 456.413,326.392C458.279,326.108 459.634,325.681 460.48,325.11C461.326,324.54 461.748,323.695 461.748,322.577L461.748,322.386C461.748,320.223 461.069,318.55 459.71,317.368C458.351,316.186 456.439,315.595 453.976,315.595C451.362,315.595 449.281,316.167 447.733,317.31C446.186,318.453 445.166,319.891 444.675,321.623L431.23,320.532C431.912,317.35 433.252,314.594 435.249,312.265C437.247,309.935 439.832,308.14 443.005,306.878C446.178,305.617 449.853,304.986 454.03,304.986C456.952,304.986 459.746,305.328 462.409,306.012C465.073,306.697 467.444,307.751 469.521,309.176C471.598,310.601 473.24,312.433 474.447,314.671C475.654,316.91 476.257,319.591 476.257,322.714L476.257,358.032L462.484,358.032L462.484,350.777L462.075,350.777C461.23,352.404 460.106,353.838 458.704,355.079C457.302,356.32 455.609,357.286 453.625,357.977C451.641,358.668 449.358,359.013 446.775,359.013ZM450.948,349.005C453.08,349.005 454.963,348.577 456.597,347.723C458.231,346.868 459.512,345.711 460.439,344.252C461.367,342.793 461.83,341.15 461.83,339.323L461.83,333.759C461.394,334.045 460.779,334.309 459.986,334.55C459.193,334.791 458.311,335.007 457.34,335.197C456.37,335.388 455.397,335.559 454.422,335.709C453.447,335.859 452.562,335.991 451.767,336.104C450.057,336.35 448.565,336.746 447.29,337.294C446.015,337.842 445.024,338.576 444.317,339.496C443.611,340.417 443.257,341.559 443.257,342.923C443.257,344.914 443.98,346.425 445.425,347.457C446.871,348.489 448.712,349.005 450.948,349.005Z" style="fill:url(#_Linear3);fill-rule:nonzero;"/>
            <path d="M485.994,358.032L485.994,305.668L500.503,305.668L500.503,358.032L485.994,358.032ZM493.286,298.904C491.124,298.904 489.273,298.186 487.732,296.749C486.191,295.312 485.421,293.585 485.421,291.567C485.421,289.549 486.192,287.822 487.735,286.386C489.278,284.95 491.125,284.232 493.275,284.232C495.443,284.232 497.294,284.95 498.829,286.387C500.363,287.824 501.13,289.551 501.13,291.569C501.13,293.587 500.363,295.314 498.829,296.75C497.294,298.186 495.447,298.904 493.286,298.904Z" style="fill:url(#_Linear4);fill-rule:nonzero;"/>
            <path d="M523.275,327.759L523.275,358.032L508.767,358.032L508.767,305.668L522.594,305.668L522.594,314.914L523.193,314.914C524.366,311.859 526.315,309.441 529.04,307.659C531.765,305.877 535.071,304.986 538.957,304.986C542.598,304.986 545.772,305.783 548.479,307.376C551.185,308.969 553.288,311.236 554.785,314.177C556.283,317.118 557.025,320.618 557.012,324.677L557.012,358.032L542.503,358.032L542.503,327.268C542.516,324.068 541.697,321.563 540.045,319.754C538.393,317.945 536.112,317.041 533.203,317.041C531.248,317.041 529.524,317.464 528.031,318.312C526.538,319.16 525.375,320.382 524.543,321.98C523.712,323.578 523.289,325.504 523.275,327.759Z" style="fill:url(#_Linear5);fill-rule:nonzero;"/>
            <path d="M619.794,305.668L619.794,316.577L588.239,316.577L588.239,305.668L619.794,305.668ZM595.412,293.123L609.921,293.123L609.921,341.927C609.921,343.272 610.13,344.317 610.548,345.06C610.966,345.803 611.543,346.322 612.28,346.615C613.016,346.908 613.866,347.054 614.83,347.054C615.525,347.054 616.215,346.993 616.899,346.87C617.583,346.748 618.103,346.646 618.457,346.564L620.748,357.391C620.025,357.623 619.001,357.891 617.676,358.196C616.351,358.5 614.748,358.686 612.866,358.755C609.366,358.891 606.303,358.426 603.675,357.36C601.048,356.294 599.007,354.632 597.553,352.373C596.098,350.113 595.384,347.277 595.412,343.864L595.412,293.123Z" style="fill:url(#_Linear6);fill-rule:nonzero;"/>
            <path d="M650.148,359.041C644.775,359.041 640.149,357.949 636.27,355.765C632.39,353.581 629.406,350.472 627.317,346.438C625.229,342.404 624.185,337.623 624.185,332.095C624.185,326.704 625.232,321.975 627.328,317.907C629.423,313.839 632.371,310.668 636.171,308.395C639.971,306.123 644.439,304.986 649.575,304.986C653.039,304.986 656.264,305.536 659.251,306.636C662.237,307.736 664.848,309.392 667.085,311.603C669.321,313.815 671.066,316.584 672.321,319.911C673.576,323.239 674.203,327.127 674.203,331.577L674.203,335.559L629.994,335.559L629.994,326.559L660.539,326.559C660.525,324.477 660.063,322.628 659.152,321.012C658.24,319.397 656.984,318.126 655.381,317.201C653.779,316.276 651.925,315.813 649.821,315.813C647.625,315.813 645.68,316.324 643.984,317.344C642.289,318.364 640.963,319.72 640.006,321.411C639.049,323.102 638.557,324.982 638.53,327.05L638.53,335.613C638.53,338.204 639.016,340.443 639.989,342.33C640.962,344.216 642.334,345.668 644.107,346.686C645.88,347.704 647.975,348.214 650.394,348.214C652.016,348.214 653.495,347.984 654.829,347.525C656.163,347.066 657.312,346.385 658.276,345.483C659.239,344.581 659.967,343.473 660.457,342.159L673.875,343.032C673.193,346.268 671.805,349.085 669.71,351.483C667.614,353.881 664.911,355.74 661.599,357.06C658.288,358.38 654.471,359.041 650.148,359.041Z" style="fill:url(#_Linear7);fill-rule:nonzero;"/>
            <path d="M692.993,305.668L702.594,323.968L712.439,305.668L727.357,305.668L712.166,331.85L727.766,358.032L712.93,358.032L702.594,339.923L692.421,358.032L677.421,358.032L692.994,331.85L677.994,305.668L692.993,305.668Z" style="fill:url(#_Linear8);fill-rule:nonzero;"/>
            <path d="M760.521,305.668L760.521,316.577L728.966,316.577L728.966,305.668L760.521,305.668ZM736.139,293.123L750.648,293.123L750.648,341.927C750.648,343.272 750.857,344.317 751.275,345.06C751.693,345.803 752.271,346.322 753.007,346.615C753.744,346.908 754.594,347.054 755.557,347.054C756.253,347.054 756.943,346.993 757.627,346.87C758.31,346.748 758.83,346.646 759.185,346.564L761.476,357.391C760.753,357.623 759.729,357.891 758.404,358.196C757.079,358.5 755.475,358.686 753.594,358.755C750.094,358.891 747.03,358.426 744.403,357.36C741.775,356.294 739.734,354.632 738.28,352.373C736.825,350.113 736.112,347.277 736.139,343.864L736.139,293.123Z" style="fill:url(#_Linear9);fill-rule:nonzero;"/>
            <path d="M193.221,473.668L193.221,401.668L207.539,401.668L207.539,410.477L208.166,410.477C208.812,409.05 209.741,407.605 210.955,406.144C212.169,404.683 213.759,403.458 215.728,402.469C217.696,401.481 220.139,400.986 223.057,400.986C226.893,400.986 230.422,401.979 233.642,403.966C236.863,405.952 239.44,408.941 241.374,412.932C243.308,416.923 244.275,421.913 244.275,427.904C244.275,433.75 243.336,438.677 241.456,442.686C239.576,446.695 237.031,449.729 233.82,451.788C230.608,453.847 227.012,454.877 223.03,454.877C220.212,454.877 217.822,454.41 215.86,453.476C213.899,452.542 212.294,451.367 211.047,449.951C209.799,448.535 208.839,447.105 208.166,445.659L207.73,445.659L207.73,473.668L193.221,473.668ZM207.43,427.85C207.43,430.959 207.863,433.671 208.729,435.987C209.594,438.304 210.845,440.104 212.479,441.388C214.113,442.672 216.094,443.314 218.421,443.314C220.803,443.314 222.811,442.66 224.445,441.354C226.079,440.047 227.32,438.231 228.168,435.906C229.015,433.581 229.439,430.895 229.439,427.85C229.439,424.823 229.02,422.16 228.181,419.862C227.343,417.564 226.106,415.771 224.472,414.483C222.838,413.194 220.821,412.549 218.421,412.549C216.075,412.549 214.085,413.176 212.451,414.428C210.817,415.68 209.572,417.451 208.715,419.739C207.858,422.028 207.43,424.732 207.43,427.85Z" style="fill:white;fill-rule:nonzero;"/>
            <path d="M251.721,454.032L251.721,401.668L265.793,401.668L265.793,410.804L266.339,410.804C267.293,407.559 268.894,405.102 271.142,403.434C273.39,401.766 275.98,400.932 278.912,400.932C279.639,400.932 280.422,400.974 281.261,401.058C282.099,401.142 282.834,401.261 283.466,401.416L283.466,414.322C282.798,414.104 281.862,413.918 280.657,413.763C279.453,413.609 278.344,413.532 277.33,413.532C275.207,413.532 273.308,413.992 271.633,414.912C269.958,415.833 268.639,417.11 267.675,418.744C266.712,420.378 266.23,422.268 266.23,424.414L266.23,454.032L251.721,454.032Z" style="fill:white;fill-rule:nonzero;"/>
            <path d="M309.457,455.041C304.157,455.041 299.582,453.912 295.732,451.655C291.882,449.399 288.912,446.244 286.821,442.192C284.73,438.14 283.685,433.423 283.685,428.041C283.685,422.641 284.73,417.91 286.821,413.849C288.912,409.787 291.882,406.628 295.732,404.371C299.582,402.115 304.157,400.986 309.457,400.986C314.757,400.986 319.332,402.115 323.182,404.371C327.032,406.628 330.003,409.787 332.094,413.849C334.185,417.91 335.23,422.641 335.23,428.041C335.23,433.423 334.185,438.14 332.094,442.192C330.003,446.244 327.032,449.399 323.182,451.655C319.332,453.912 314.757,455.041 309.457,455.041ZM309.539,443.804C311.93,443.804 313.937,443.116 315.56,441.738C317.182,440.361 318.407,438.479 319.235,436.093C320.062,433.707 320.476,430.995 320.476,427.959C320.476,424.909 320.062,422.19 319.235,419.801C318.407,417.412 317.182,415.525 315.56,414.138C313.937,412.752 311.93,412.059 309.539,412.059C307.094,412.059 305.046,412.752 303.396,414.138C301.746,415.525 300.507,417.412 299.68,419.801C298.853,422.19 298.439,424.909 298.439,427.959C298.439,430.995 298.853,433.707 299.68,436.093C300.507,438.479 301.746,440.361 303.396,441.738C305.046,443.116 307.094,443.804 309.539,443.804Z" style="fill:white;fill-rule:nonzero;"/>
            <path d="M343.085,401.668L357.594,401.668L357.594,456.623C357.594,460.668 356.797,463.941 355.204,466.441C353.611,468.941 351.335,470.77 348.376,471.929C345.417,473.089 341.88,473.668 337.767,473.668C337.248,473.668 336.761,473.661 336.304,473.648C335.847,473.634 335.353,473.613 334.821,473.586L334.821,462.241C335.203,462.268 335.538,462.289 335.827,462.302C336.115,462.316 336.416,462.323 336.73,462.323C339.062,462.323 340.704,461.826 341.656,460.833C342.609,459.84 343.085,458.354 343.085,456.377L343.085,401.668ZM350.312,394.904C348.157,394.904 346.309,394.186 344.769,392.75C343.228,391.314 342.457,389.586 342.457,387.568C342.457,385.55 343.228,383.822 344.769,382.386C346.309,380.95 348.157,380.232 350.312,380.232C352.48,380.232 354.331,380.95 355.865,382.386C357.399,383.822 358.166,385.55 358.166,387.568C358.166,389.586 357.399,391.314 355.865,392.75C354.331,394.186 352.48,394.904 350.312,394.904Z" style="fill:white;fill-rule:nonzero;"/>
            <path d="M389.693,455.041C384.321,455.041 379.695,453.949 375.815,451.765C371.936,449.581 368.952,446.472 366.863,442.438C364.774,438.404 363.73,433.623 363.73,428.095C363.73,422.704 364.778,417.975 366.873,413.907C368.969,409.839 371.917,406.668 375.716,404.395C379.516,402.123 383.984,400.986 389.121,400.986C392.585,400.986 395.81,401.536 398.796,402.636C401.782,403.736 404.394,405.392 406.63,407.603C408.866,409.815 410.612,412.584 411.866,415.911C413.121,419.239 413.748,423.127 413.748,427.577L413.748,431.559L369.539,431.559L369.539,422.559L400.085,422.559C400.071,420.477 399.608,418.628 398.697,417.012C397.786,415.397 396.529,414.126 394.927,413.201C393.324,412.276 391.471,411.813 389.366,411.813C387.171,411.813 385.225,412.324 383.53,413.344C381.834,414.364 380.508,415.72 379.551,417.411C378.595,419.102 378.103,420.982 378.075,423.05L378.075,431.613C378.075,434.204 378.562,436.443 379.534,438.33C380.507,440.216 381.88,441.668 383.652,442.686C385.425,443.704 387.521,444.214 389.939,444.214C391.562,444.214 393.04,443.984 394.375,443.525C395.709,443.066 396.858,442.385 397.821,441.483C398.785,440.581 399.512,439.473 400.003,438.159L413.421,439.032C412.739,442.268 411.35,445.085 409.255,447.483C407.16,449.881 404.456,451.74 401.145,453.06C397.833,454.38 394.016,455.041 389.693,455.041Z" style="fill:white;fill-rule:nonzero;"/>
            <path d="M445.412,455.041C440.039,455.041 435.43,453.899 431.585,451.614C427.739,449.33 424.787,446.158 422.728,442.096C420.669,438.035 419.639,433.35 419.639,428.041C419.639,422.695 420.68,417.99 422.762,413.924C424.844,409.858 427.805,406.685 431.646,404.405C435.487,402.126 440.057,400.986 445.358,400.986C449.912,400.986 453.908,401.815 457.347,403.471C460.785,405.128 463.502,407.46 465.498,410.467C467.494,413.473 468.589,416.995 468.784,421.032L455.094,421.032C454.698,418.427 453.681,416.321 452.043,414.715C450.404,413.108 448.248,412.304 445.575,412.304C443.339,412.304 441.382,412.912 439.705,414.128C438.028,415.344 436.723,417.11 435.791,419.426C434.859,421.742 434.394,424.55 434.394,427.85C434.394,431.186 434.855,434.024 435.778,436.362C436.7,438.701 438,440.485 439.678,441.715C441.355,442.945 443.321,443.559 445.575,443.559C447.244,443.559 448.739,443.22 450.062,442.54C451.384,441.86 452.483,440.869 453.358,439.567C454.234,438.265 454.812,436.686 455.094,434.832L468.784,434.832C468.562,438.836 467.48,442.358 465.539,445.397C463.598,448.435 460.922,450.802 457.511,452.498C454.099,454.193 450.066,455.041 445.412,455.041Z" style="fill:white;fill-rule:nonzero;"/>
            <path d="M503.203,401.668L503.203,412.577L471.648,412.577L471.648,401.668L503.203,401.668ZM478.821,389.123L493.33,389.123L493.33,437.927C493.33,439.272 493.539,440.317 493.957,441.06C494.375,441.803 494.952,442.322 495.689,442.615C496.426,442.908 497.275,443.054 498.239,443.054C498.935,443.054 499.624,442.993 500.308,442.87C500.992,442.748 501.512,442.646 501.866,442.564L504.157,453.391C503.434,453.623 502.41,453.891 501.085,454.196C499.761,454.5 498.157,454.686 496.275,454.755C492.775,454.891 489.712,454.426 487.085,453.36C484.457,452.294 482.416,450.632 480.962,448.373C479.507,446.113 478.794,443.277 478.821,439.864L478.821,389.123Z" style="fill:white;fill-rule:nonzero;"/>
            <path d="M537.267,473.668L537.267,401.668L551.584,401.668L551.584,410.477L552.212,410.477C552.857,409.05 553.786,407.605 555,406.144C556.214,404.683 557.805,403.458 559.773,402.469C561.741,401.481 564.184,400.986 567.103,400.986C570.939,400.986 574.467,401.979 577.688,403.966C580.908,405.952 583.486,408.941 585.42,412.932C587.354,416.923 588.321,421.913 588.321,427.904C588.321,433.75 587.381,438.677 585.502,442.686C583.622,446.695 581.076,449.729 577.865,451.788C574.654,453.847 571.057,454.877 567.075,454.877C564.257,454.877 561.867,454.41 559.906,453.476C557.944,452.542 556.34,451.367 555.092,449.951C553.844,448.535 552.884,447.105 552.212,445.659L551.775,445.659L551.775,473.668L537.267,473.668ZM551.475,427.85C551.475,430.959 551.908,433.671 552.774,435.987C553.64,438.304 554.89,440.104 556.524,441.388C558.158,442.672 560.139,443.314 562.466,443.314C564.848,443.314 566.856,442.66 568.49,441.354C570.124,440.047 571.365,438.231 572.213,435.906C573.061,433.581 573.484,430.895 573.484,427.85C573.484,424.823 573.065,422.16 572.227,419.862C571.388,417.564 570.152,415.771 568.518,414.483C566.884,413.194 564.866,412.549 562.466,412.549C560.121,412.549 558.131,413.176 556.497,414.428C554.863,415.68 553.617,417.451 552.76,419.739C551.903,422.028 551.475,424.732 551.475,427.85Z" style="fill:white;fill-rule:nonzero;"/>
            <rect x="595.767" y="384.214" width="14.509" height="69.818" style="fill:white;fill-rule:nonzero;"/>
            <path d="M633.457,455.013C630.126,455.013 627.152,454.431 624.536,453.265C621.92,452.099 619.857,450.361 618.348,448.052C616.839,445.743 616.085,442.864 616.085,439.414C616.085,436.495 616.614,434.051 617.673,432.081C618.733,430.11 620.183,428.523 622.024,427.318C623.864,426.114 625.963,425.2 628.32,424.577C630.677,423.954 633.153,423.518 635.748,423.268C638.78,422.968 641.229,422.676 643.095,422.392C644.961,422.108 646.316,421.681 647.162,421.11C648.007,420.54 648.43,419.695 648.43,418.577L648.43,418.386C648.43,416.223 647.751,414.55 646.392,413.368C645.033,412.186 643.121,411.595 640.657,411.595C638.044,411.595 635.963,412.167 634.415,413.31C632.868,414.453 631.848,415.891 631.357,417.623L617.912,416.532C618.594,413.35 619.933,410.594 621.931,408.265C623.929,405.935 626.514,404.14 629.687,402.878C632.86,401.617 636.535,400.986 640.712,400.986C643.634,400.986 646.427,401.328 649.091,402.012C651.755,402.697 654.125,403.751 656.203,405.176C658.28,406.601 659.922,408.433 661.129,410.671C662.336,412.91 662.939,415.591 662.939,418.714L662.939,454.032L649.166,454.032L649.166,446.777L648.757,446.777C647.912,448.404 646.788,449.838 645.386,451.079C643.984,452.32 642.29,453.286 640.306,453.977C638.322,454.668 636.039,455.013 633.457,455.013ZM637.63,445.005C639.762,445.005 641.645,444.577 643.279,443.723C644.913,442.868 646.194,441.711 647.121,440.252C648.048,438.793 648.512,437.15 648.512,435.323L648.512,429.759C648.076,430.045 647.461,430.309 646.668,430.55C645.875,430.791 644.993,431.007 644.022,431.197C643.052,431.388 642.079,431.559 641.104,431.709C640.129,431.859 639.244,431.991 638.448,432.104C636.739,432.35 635.247,432.746 633.972,433.294C632.697,433.842 631.706,434.576 630.999,435.496C630.292,436.417 629.939,437.559 629.939,438.923C629.939,440.914 630.662,442.425 632.107,443.457C633.553,444.489 635.394,445.005 637.63,445.005Z" style="fill:white;fill-rule:nonzero;"/>
            <path d="M687.185,423.759L687.185,454.032L672.676,454.032L672.676,401.668L686.503,401.668L686.503,410.914L687.103,410.914C688.275,407.859 690.224,405.441 692.949,403.659C695.674,401.877 698.98,400.986 702.866,400.986C706.507,400.986 709.681,401.783 712.388,403.376C715.094,404.969 717.197,407.236 718.694,410.177C720.192,413.118 720.934,416.618 720.921,420.677L720.921,454.032L706.412,454.032L706.412,423.268C706.425,420.068 705.606,417.563 703.954,415.754C702.302,413.945 700.021,413.041 697.112,413.041C695.157,413.041 693.433,413.464 691.94,414.312C690.447,415.16 689.284,416.382 688.453,417.98C687.621,419.578 687.198,421.504 687.185,423.759Z" style="fill:white;fill-rule:nonzero;"/>
            <path d="M743.366,423.759L743.366,454.032L728.858,454.032L728.858,401.668L742.685,401.668L742.685,410.914L743.284,410.914C744.457,407.859 746.406,405.441 749.131,403.659C751.856,401.877 755.162,400.986 759.048,400.986C762.689,400.986 765.863,401.783 768.569,403.376C771.276,404.969 773.379,407.236 774.876,410.177C776.374,413.118 777.116,416.618 777.103,420.677L777.103,454.032L762.594,454.032L762.594,423.268C762.607,420.068 761.788,417.563 760.136,415.754C758.483,413.945 756.203,413.041 753.294,413.041C751.339,413.041 749.615,413.464 748.122,414.312C746.629,415.16 745.466,416.382 744.634,417.98C743.803,419.578 743.38,421.504 743.366,423.759Z" style="fill:white;fill-rule:nonzero;"/>
            <path d="M785.039,454.032L785.039,401.668L799.548,401.668L799.548,454.032L785.039,454.032ZM792.331,394.904C790.17,394.904 788.319,394.186 786.778,392.749C785.237,391.312 784.466,389.585 784.466,387.567C784.466,385.549 785.238,383.822 786.781,382.386C788.324,380.95 790.17,380.232 792.321,380.232C794.489,380.232 796.34,380.95 797.874,382.387C799.408,383.824 800.175,385.551 800.175,387.569C800.175,389.587 799.408,391.314 797.874,392.75C796.34,394.186 794.492,394.904 792.331,394.904Z" style="fill:white;fill-rule:nonzero;"/>
            <path d="M822.321,423.759L822.321,454.032L807.812,454.032L807.812,401.668L821.639,401.668L821.639,410.914L822.239,410.914C823.411,407.859 825.36,405.441 828.085,403.659C830.811,401.877 834.116,400.986 838.003,400.986C841.643,400.986 844.817,401.783 847.524,403.376C850.231,404.969 852.333,407.236 853.831,410.177C855.328,413.118 856.071,416.618 856.057,420.677L856.057,454.032L841.548,454.032L841.548,423.268C841.562,420.068 840.742,417.563 839.09,415.754C837.438,413.945 835.157,413.041 832.248,413.041C830.294,413.041 828.57,413.464 827.077,414.312C825.583,415.16 824.421,416.382 823.589,417.98C822.757,419.578 822.334,421.504 822.321,423.759Z" style="fill:white;fill-rule:nonzero;"/>
            <path d="M887.585,474.759C882.88,474.759 878.847,474.115 875.486,472.826C872.125,471.537 869.456,469.792 867.481,467.59C865.506,465.387 864.225,462.913 863.639,460.168L877.084,458.368C877.484,459.418 878.125,460.396 879.007,461.3C879.889,462.204 881.063,462.933 882.529,463.485C883.995,464.038 885.789,464.314 887.912,464.314C891.062,464.314 893.667,463.55 895.729,462.023C897.79,460.495 898.821,457.932 898.821,454.332L898.821,444.759L898.221,444.759C897.576,446.204 896.614,447.578 895.337,448.881C894.06,450.183 892.426,451.244 890.435,452.065C888.444,452.885 886.057,453.296 883.275,453.296C879.348,453.296 875.777,452.377 872.561,450.541C869.345,448.704 866.786,445.898 864.883,442.12C862.981,438.343 862.03,433.55 862.03,427.741C862.03,421.804 862.997,416.852 864.931,412.884C866.865,408.916 869.443,405.941 872.663,403.959C875.884,401.977 879.412,400.986 883.248,400.986C886.167,400.986 888.614,401.481 890.592,402.469C892.569,403.458 894.169,404.683 895.392,406.144C896.614,407.605 897.548,409.05 898.194,410.477L898.767,410.477L898.767,401.668L913.166,401.668L913.166,454.55C913.166,459.009 912.074,462.735 909.89,465.728C907.706,468.721 904.689,470.975 900.839,472.488C896.989,474.002 892.571,474.759 887.585,474.759ZM887.885,442.386C890.212,442.386 892.192,441.801 893.827,440.631C895.461,439.46 896.711,437.779 897.577,435.585C898.443,433.392 898.876,430.759 898.876,427.686C898.876,424.622 898.447,421.958 897.59,419.692C896.734,417.426 895.488,415.669 893.854,414.421C892.22,413.173 890.23,412.549 887.885,412.549C885.484,412.549 883.467,413.192 881.833,414.476C880.199,415.76 878.963,417.54 878.124,419.815C877.286,422.09 876.866,424.714 876.866,427.686C876.866,430.695 877.29,433.299 878.138,435.496C878.986,437.694 880.226,439.392 881.86,440.59C883.494,441.788 885.503,442.386 887.885,442.386Z" style="fill:white;fill-rule:nonzero;"/>
        </g>
        <path d="M401.191,152.056L408.313,152.056L408.313,204.597L355.772,204.597L355.772,197.423L362.919,197.423L362.919,197.449L401.165,197.449L401.165,197.423L401.191,197.423L401.191,152.056ZM387.849,159.204L362.919,159.204L362.919,184.081L355.798,184.081L355.798,152.056L387.849,152.056L387.849,159.204Z" style="fill:white;"/>
        <g transform="matrix(0.476503,0,0,0.476503,-313.435,-17.3498)">
            <path d="M1493.23,444.227L1382.97,444.227L1382.97,333.964L1493.23,333.964L1493.23,444.227ZM1478.23,348.964L1397.97,348.964L1397.97,429.227L1478.23,429.227L1478.23,348.964Z" style="fill:white;"/>
        </g>
    </g>
    <defs>
        <linearGradient id="_Linear1" x1="0" y1="0" x2="1" y2="0" gradientUnits="userSpaceOnUse" gradientTransform="matrix(718.146,0,0,189.927,193.739,379.795)"><stop offset="0" style="stop-color:rgb(138,35,135);stop-opacity:1"/><stop offset="0.5" style="stop-color:rgb(233,64,87);stop-opacity:1"/><stop offset="1" style="stop-color:rgb(242,113,33);stop-opacity:1"/></linearGradient>
        <linearGradient id="_Linear2" x1="0" y1="0" x2="1" y2="0" gradientUnits="userSpaceOnUse" gradientTransform="matrix(718.146,0,0,189.927,193.739,379.795)"><stop offset="0" style="stop-color:rgb(138,35,135);stop-opacity:1"/><stop offset="0.5" style="stop-color:rgb(233,64,87);stop-opacity:1"/><stop offset="1" style="stop-color:rgb(242,113,33);stop-opacity:1"/></linearGradient>
        <linearGradient id="_Linear3" x1="0" y1="0" x2="1" y2="0" gradientUnits="userSpaceOnUse" gradientTransform="matrix(718.146,0,0,189.927,193.739,379.795)"><stop offset="0" style="stop-color:rgb(138,35,135);stop-opacity:1"/><stop offset="0.5" style="stop-color:rgb(233,64,87);stop-opacity:1"/><stop offset="1" style="stop-color:rgb(242,113,33);stop-opacity:1"/></linearGradient>
        <linearGradient id="_Linear4" x1="0" y1="0" x2="1" y2="0" gradientUnits="userSpaceOnUse" gradientTransform="matrix(718.146,0,0,189.927,193.739,379.795)"><stop offset="0" style="stop-color:rgb(138,35,135);stop-opacity:1"/><stop offset="0.5" style="stop-color:rgb(233,64,87);stop-opacity:1"/><stop offset="1" style="stop-color:rgb(242,113,33);stop-opacity:1"/></linearGradient>
        <linearGradient id="_Linear5" x1="0" y1="0" x2="1" y2="0" gradientUnits="userSpaceOnUse" gradientTransform="matrix(718.146,0,0,189.927,193.739,379.795)"><stop offset="0" style="stop-color:rgb(138,35,135);stop-opacity:1"/><stop offset="0.5" style="stop-color:rgb(233,64,87);stop-opacity:1"/><stop offset="1" style="stop-color:rgb(242,113,33);stop-opacity:1"/></linearGradient>
        <linearGradient id="_Linear6" x1="0" y1="0" x2="1" y2="0" gradientUnits="userSpaceOnUse" gradientTransform="matrix(718.146,0,0,189.927,193.739,379.795)"><stop offset="0" style="stop-color:rgb(138,35,135);stop-opacity:1"/><stop offset="0.5" style="stop-color:rgb(233,64,87);stop-opacity:1"/><stop offset="1" style="stop-color:rgb(242,113,33);stop-opacity:1"/></linearGradient>
        <linearGradient id="_Linear7" x1="0" y1="0" x2="1" y2="0" gradientUnits="userSpaceOnUse" gradientTransform="matrix(718.146,0,0,189.927,193.739,379.795)"><stop offset="0" style="stop-color:rgb(138,35,135);stop-opacity:1"/><stop offset="0.5" style="stop-color:rgb(233,64,87);stop-opacity:1"/><stop offset="1" style="stop-color:rgb(242,113,33);stop-opacity:1"/></linearGradient>
        <linearGradient id="_Linear8" x1="0" y1="0" x2="1" y2="0" gradientUnits="userSpaceOnUse" gradientTransform="matrix(718.146,0,0,189.927,193.739,379.795)"><stop offset="0" style="stop-color:rgb(138,35,135);stop-opacity:1"/><stop offset="0.5" style="stop-color:rgb(233,64,87);stop-opacity:1"/><stop offset="1" style="stop-color:rgb(242,113,33);stop-opacity:1"/></linearGradient>
        <linearGradient id="_Linear9" x1="0" y1="0" x2="1" y2="0" gradientUnits="userSpaceOnUse" gradientTransform="matrix(718.146,0,0,189.927,193.739,379.795)"><stop offset="0" style="stop-color:rgb(138,35,135);stop-opacity:1"/><stop offset="0.5" style="stop-color:rgb(233,64,87);stop-opacity:1"/><stop offset="1" style="stop-color:rgb(242,113,33);stop-opacity:1"/></linearGradient>
    </defs>
</svg>
